<?xml version="1.0" encoding="utf-8"?>
<!-- Generator: Adobe Illustrator 19.1.0, SVG Export Plug-In . SVG Version: 6.00 Build 0)  -->
<svg version="1.1" id="Layer_1" xmlns="http://www.w3.org/2000/svg" xmlns:xlink="http://www.w3.org/1999/xlink" x="0px" y="0px"
	 viewBox="0 0 338.5 192.2" style="enable-background:new 0 0 338.5 192.2;" xml:space="preserve">
<style type="text/css">
	.st0{opacity:0.36;fill:#31C5F4;}
	.st1{opacity:0.46;fill:#8BD4E2;}
</style>
<g>
	<path class="st0" d="M10.2,160.6c-1.8,0.8-3.9,0.9-5.9,0c-3.7-1.6-5.3-5.9-3.7-9.5c5.5-12.5,15.5-22.5,28-28.1
		c3.6-1.6,7.9,0,9.6,3.6c1.6,3.6,0,7.9-3.6,9.6c-9.2,4.1-16.6,11.5-20.7,20.8C13.1,158.6,11.8,159.9,10.2,160.6z"/>
</g>
<g>
	<path class="st0" d="M281.4,82.5c-1.7,0.8-3.7,0.9-5.5,0.2c-3.7-1.4-5.6-5.6-4.2-9.3c3.6-9.5,3.6-19.9-0.1-29.3
		c-1.4-3.7,0.4-7.9,4.1-9.4c3.7-1.4,7.9,0.4,9.4,4.1c4.9,12.8,5,26.8,0.1,39.6C284.5,80.3,283.1,81.7,281.4,82.5z"/>
</g>
<g>
	<path class="st0" d="M177.5,66.8c-2.8,1.3-6.3,0.6-8.4-1.9c-2.6-3-2.3-7.6,0.7-10.2c7.6-6.6,12.5-15.8,13.8-25.8
		c0.5-4,4.1-6.8,8.1-6.3c4,0.5,6.8,4.1,6.3,8.1c-1.7,13.6-8.3,26-18.7,35C178.7,66.1,178.1,66.5,177.5,66.8z"/>
</g>
<g>
	<path class="st0" d="M115.4,36.3c-2.5,1.1-5.4,0.8-7.6-1.1c-3-2.6-3.4-7.1-0.8-10.2c8.7-10.3,20.9-17.1,34.2-19
		c4-0.6,7.6,2.1,8.2,6.1c0.6,4-2.1,7.6-6.1,8.2c-9.9,1.5-18.8,6.4-25.3,14.1C117.3,35.2,116.4,35.9,115.4,36.3z"/>
</g>
<circle class="st1" cx="281" cy="114.3" r="12.6"/>
<circle class="st1" cx="55.1" cy="72.4" r="12.6"/>
<circle class="st1" cx="243.1" cy="91.3" r="12.6"/>
<circle class="st1" cx="72.5" cy="170.9" r="21.2"/>
<circle class="st1" cx="223.3" cy="28.8" r="21.2"/>
<circle class="st1" cx="81" cy="116.2" r="12.2"/>
<circle class="st1" cx="323.6" cy="124.5" r="12.2"/>
<circle class="st1" cx="94.2" cy="62.5" r="7.2"/>
<circle class="st1" cx="161.8" cy="32.1" r="7.2"/>
<circle class="st1" cx="97.9" cy="88.2" r="7.2"/>
<circle class="st1" cx="206.5" cy="71.2" r="12.6"/>
<g>
	<path d="M63.2,142.3l-3.5,18.2l9.7,5.2l-2.8,14.2l-51.1-30.9l2.4-12.5l59-9.6l-2.8,14.3L63.2,142.3z M50,155.3l2.3-11.8L32,145.7
		L50,155.3z"/>
	<path d="M84.8,100.7l15.2-17.9l7.9,6.7l-24,28.2L41.2,81.4L50,71.1L84.8,100.7z"/>
	<path d="M118.3,81.7L98.1,29.3l18.8-7.3c6.7-2.6,12.3-3.3,16.8-2.2c4.5,1.1,7.6,4,9.4,8.7c1,2.7,1.3,5.3,0.8,7.7s-1.8,4.5-3.9,6.4
		c3-0.3,5.6,0.2,7.8,1.6c2.2,1.4,3.9,3.5,5,6.3c2,5.1,1.8,9.6-0.4,13.4c-2.3,3.8-6.6,7-12.9,9.5L118.3,81.7z M122.4,54.5l4.8,12.5
		l8.3-3.2c2.3-0.9,3.8-2.1,4.6-3.6c0.8-1.5,0.9-3.2,0.1-5.1c-1.7-4.4-4.7-5.7-9-4.1L122.4,54.5z M119.2,46.3l6.6-2.5
		c2.7-1.1,4.5-2.4,5.3-3.8c0.8-1.4,0.8-3.1,0.1-5c-0.9-2.2-2.1-3.6-3.8-4c-1.6-0.5-3.9-0.2-6.7,0.9l-6.2,2.4L119.2,46.3z"/>
	<path d="M226,16.8L219.8,53c-0.7,4.1-2.2,7.5-4.4,10.2c-2.3,2.7-5.2,4.6-8.7,5.6c-3.5,1-7.5,1.1-12,0.4c-6.7-1.2-11.7-3.8-15-8
		c-3.3-4.2-4.4-9.3-3.5-15.4l6.2-36.5l13.4,2.3l-6.3,36.7c-0.9,6.1,1.4,9.6,6.9,10.5c2.8,0.5,5,0.1,6.7-1.2c1.7-1.3,2.8-3.6,3.4-7
		l6.2-36.1L226,16.8z"/>
	<path d="M283.1,49.6L264.3,86l36.5-18.7l12.6,12.6l-39.7,39.6l-9.6-9.6l9.3-9.2l19.9-18l-37.8,18.6l-6.3-6.3L267.8,57l-18.1,19.9
		l-9.3,9.2l-9.5-9.6L270.6,37L283.1,49.6z"/>
	<path d="M298.1,159.8c1.9-0.4,3.3-1.3,4.2-2.9c0.8-1.6,1.5-4.2,2-7.9c0.5-3.7,1.1-6.7,1.8-9.1c2.2-7.8,6.3-12.3,12.5-13.4
		c3.1-0.6,5.9-0.2,8.6,1.2c2.7,1.3,5,3.5,6.9,6.5c1.9,3,3.2,6.6,4,10.6c0.7,4,0.7,7.6-0.1,11.1c-0.8,3.4-2.4,6.2-4.7,8.5
		c-2.3,2.2-5.1,3.7-8.5,4.3l-2.5-13.3c2.2-0.4,3.9-1.4,4.8-3s1.3-3.6,0.8-5.9c-0.4-2.4-1.3-4.2-2.6-5.3c-1.3-1.2-2.8-1.6-4.4-1.3
		c-1.4,0.3-2.6,1.3-3.4,3c-0.9,1.7-1.6,4.6-2.1,8.7c-0.5,4-1.3,7.4-2.2,10.1c-2.3,6.6-6.5,10.5-12.5,11.6c-4.8,0.9-8.9-0.2-12.4-3.3
		c-3.4-3.1-5.7-7.9-6.9-14.2c-0.8-4.5-0.8-8.7,0.1-12.6c0.9-3.9,2.6-7.1,5.1-9.4c2.4-2.3,5.5-3.9,9.1-4.5l2.5,13.3
		c-3,0.5-5,1.7-6.1,3.5c-1.1,1.8-1.4,4.4-0.7,7.8c0.4,2.2,1.2,3.8,2.4,4.9C294.9,159.7,296.4,160.1,298.1,159.8z"/>
</g>
<g>
	<path class="st0" d="M276.4,165.8c-1.8,0.8-3.9,0.9-5.9,0c-3.7-1.6-5.3-5.9-3.7-9.5c5.5-12.5,15.5-22.5,28-28.1
		c3.6-1.6,7.9,0,9.6,3.6s0,7.9-3.6,9.6c-9.2,4.1-16.6,11.5-20.7,20.8C279.2,163.8,277.9,165.1,276.4,165.8z"/>
</g>
<g>
	<path class="st0" d="M229.2,38.3c-1.8,0.8-3.9,0.9-5.9,0c-3.7-1.6-5.3-5.9-3.7-9.5c5.5-12.5,15.5-22.5,28-28.1
		c3.6-1.6,7.9,0,9.6,3.6c1.6,3.6,0,7.9-3.6,9.6c-9.2,4.1-16.6,11.5-20.7,20.8C232.1,36.3,230.8,37.6,229.2,38.3z"/>
</g>
<g>
	<path class="st0" d="M129.7,105.7c-0.8,0.4-1.8,0.6-2.7,0.6c-4,0.1-7.3-3-7.4-7c-0.3-10-4.2-19.5-11-26.7
		c-2.7-2.9-2.6-7.5,0.3-10.2c2.9-2.7,7.5-2.6,10.2,0.3c9.2,9.8,14.5,22.7,14.9,36.2C134,101.9,132.3,104.6,129.7,105.7z"/>
</g>
</svg>
