<?xml version="1.0" encoding="utf-8"?>
<!-- Generator: Adobe Illustrator 19.1.0, SVG Export Plug-In . SVG Version: 6.00 Build 0)  -->
<svg version="1.1" id="Layer_1" xmlns="http://www.w3.org/2000/svg" xmlns:xlink="http://www.w3.org/1999/xlink" x="0px" y="0px"
	 viewBox="-256 185.7 278.3 278.3" style="enable-background:new -256 185.7 278.3 278.3;" xml:space="preserve">
<style type="text/css">
	.st0{opacity:0.46;fill:#8BD4E2;enable-background:new    ;}
</style>
<circle class="st0" cx="-170.5" cy="274.8" r="7.6"/>
<circle class="st0" cx="-227.1" cy="274.8" r="7.6"/>
<circle class="st0" cx="-63.7" cy="231.2" r="7.6"/>
<circle class="st0" cx="-106.7" cy="248.1" r="7.6"/>
<circle class="st0" cx="-154.3" cy="248.1" r="7.6"/>
<circle class="st0" cx="-187.2" cy="338.9" r="7.6"/>
<circle class="st0" cx="-244.4" cy="341.1" r="7.6"/>
<circle class="st0" cx="-162.8" cy="429.1" r="7.6"/>
<circle class="st0" cx="-133.6" cy="420" r="7.6"/>
<circle class="st0" cx="-114.1" cy="442" r="7.6"/>
<circle class="st0" cx="-120.4" cy="358.6" r="7.6"/>
<circle class="st0" cx="-155.4" cy="213.3" r="7.4"/>
<circle class="st0" cx="-121.7" cy="198.5" r="7.4"/>
<circle class="st0" cx="-46.4" cy="255.7" r="7.4"/>
<circle class="st0" cx="-72.2" cy="282.5" r="7.4"/>
<circle class="st0" cx="-35.8" cy="301.8" r="7.4"/>
<circle class="st0" cx="-63.7" cy="366.2" r="7.4"/>
<circle class="st0" cx="-13.2" cy="375.8" r="7.4"/>
<circle class="st0" cx="7.7" cy="294.4" r="7.4"/>
<circle class="st0" cx="-35.8" cy="415.6" r="7.4"/>
<circle class="st0" cx="-84" cy="449.6" r="7.4"/>
<circle class="st0" cx="-19.2" cy="251.8" r="7.4"/>
<circle class="st0" cx="-95.1" cy="217.2" r="7.4"/>
<circle class="st0" cx="-234.5" cy="370.3" r="7.4"/>
<circle class="st0" cx="-114.1" cy="400.8" r="7.4"/>
<circle class="st0" cx="-154.3" cy="354.2" r="7.4"/>
<circle class="st0" cx="-133.6" cy="313.6" r="7.4"/>
<circle class="st0" cx="-196.1" cy="231.2" r="7.4"/>
<circle class="st0" cx="-196.1" cy="424.7" r="7.4"/>
<circle class="st0" cx="-162.8" cy="388.7" r="7.4"/>
<circle class="st0" cx="-88.3" cy="331.5" r="7.4"/>
<circle class="st0" cx="-113" cy="301.8" r="7.4"/>
<circle class="st0" cx="7.7" cy="350.7" r="7.4"/>
<circle class="st0" cx="-227.1" cy="316.6" r="7.4"/>
<circle class="st0" cx="-76.6" cy="408.2" r="7.4"/>
<circle class="st0" cx="-13.2" cy="324.1" r="7.4"/>
</svg>
