<?xml version="1.0" encoding="utf-8"?>
<!-- Generator: Adobe Illustrator 19.1.0, SVG Export Plug-In . SVG Version: 6.00 Build 0)  -->
<svg version="1.1" id="Layer_1" xmlns="http://www.w3.org/2000/svg" xmlns:xlink="http://www.w3.org/1999/xlink" x="0px" y="0px"
	 viewBox="0 0 278.3 278.3" style="enable-background:new 0 0 278.3 278.3;" xml:space="preserve">
<style type="text/css">
	.st0{opacity:0.46;fill:#8BD4E2;}
	.st1{font-family:'Roboto-Black';}
	.st2{font-size:42px;}
</style>
<circle class="st0" cx="83.8" cy="88.8" r="7.6"/>
<circle class="st0" cx="27.2" cy="88.8" r="7.6"/>
<circle class="st0" cx="190.6" cy="45.2" r="7.6"/>
<circle class="st0" cx="147.6" cy="62.1" r="7.6"/>
<circle class="st0" cx="190.6" cy="178.8" r="12.9"/>
<circle class="st0" cx="235.1" cy="65.8" r="12.9"/>
<circle class="st0" cx="67.1" cy="151.7" r="12.9"/>
<circle class="st0" cx="100" cy="62.1" r="12.9"/>
<circle class="st0" cx="139.2" cy="256" r="12.9"/>
<circle class="st0" cx="241.1" cy="189.8" r="12.9"/>
<circle class="st0" cx="58.2" cy="45.2" r="4"/>
<circle class="st0" cx="116.4" cy="23.8" r="7.4"/>
<circle class="st0" cx="19.8" cy="184.3" r="7.4"/>
<circle class="st0" cx="140.2" cy="214.8" r="7.4"/>
<circle class="st0" cx="100" cy="168.2" r="7.4"/>
<circle class="st0" cx="58.2" cy="238.7" r="7.4"/>
<circle class="st0" cx="91.5" cy="202.7" r="7.4"/>
<circle class="st0" cx="166" cy="145.5" r="7.4"/>
<circle class="st0" cx="141.3" cy="115.8" r="7.4"/>
<circle class="st0" cx="262" cy="164.7" r="7.4"/>
<circle class="st0" cx="27.2" cy="130.6" r="7.4"/>
<circle class="st0" cx="177.7" cy="222.2" r="7.4"/>
<circle class="st0" cx="241.1" cy="138.1" r="7.4"/>
<circle class="st0" cx="91.5" cy="243.1" r="4.4"/>
<circle class="st0" cx="133.9" cy="172.6" r="4.4"/>
<circle class="st0" cx="120.7" cy="127.6" r="4.4"/>
<circle class="st0" cx="120.7" cy="234" r="4.4"/>
<circle class="st0" cx="170.3" cy="265.2" r="4.4"/>
<circle class="st0" cx="9.9" cy="155.1" r="4.4"/>
<circle class="st0" cx="159.2" cy="31.2" r="4.4"/>
<circle class="st0" cx="132.8" cy="12.5" r="4.4"/>
<circle class="st0" cx="207.9" cy="69.7" r="4.4"/>
<circle class="st0" cx="262" cy="107.4" r="4.4"/>
<circle class="st0" cx="218.5" cy="115.8" r="4.4"/>
<circle class="st0" cx="182.1" cy="96.5" r="4.4"/>
<circle class="st0" cx="218.5" cy="231.3" r="4.4"/>
<text transform="matrix(1 0 0 1 39.8198 78.7163)" class="st1 st2">A</text>
<text transform="matrix(1 0 0 1 104.9625 127.5878)" class="st1 st2">L</text>
<text transform="matrix(1 0 0 1 158.5428 69.7155)" class="st1 st2">B</text>
<text transform="matrix(1 0 0 1 214.1174 131.9407)" class="st1 st2">U</text>
<text transform="matrix(1 0 0 1 186.4335 207.4046)" class="st1 st2">M</text>
<text transform="matrix(1 0 0 1 116.3894 239.0475)" class="st1 st2">S</text>
</svg>
