<?xml version="1.0" encoding="utf-8"?>
<!-- Generator: Adobe Illustrator 19.1.0, SVG Export Plug-In . SVG Version: 6.00 Build 0)  -->
<svg version="1.1" id="Layer_1" xmlns="http://www.w3.org/2000/svg" xmlns:xlink="http://www.w3.org/1999/xlink" x="0px" y="0px"
	 viewBox="0 0 360 360" style="enable-background:new 0 0 360 360;" xml:space="preserve">
<style type="text/css">
	.st0{fill:#EFEFF0;}
	.st1{font-family:'FatFrank-Heavy';}
	.st2{font-size:32.2244px;}
</style>
<text transform="matrix(0.7953 0.6062 -0.6062 0.7953 27.8924 262.983)" class="st0 st1 st2">5</text>
<text transform="matrix(0.7953 0.6062 -0.6062 0.7953 211.9378 225.6471)" class="st0 st1 st2">5</text>
<text transform="matrix(0.7917 -0.6109 0.6109 0.7917 147.317 173.4582)" class="st0 st1 st2">5</text>
<text transform="matrix(0.7953 0.6062 -0.6062 0.7953 299.6747 99.1217)" class="st0 st1 st2">5</text>
<text transform="matrix(0.9902 -0.1397 0.1397 0.9902 256.2811 58.2486)" class="st0 st1 st2">5</text>
<text transform="matrix(0.9902 -0.1397 0.1397 0.9902 30.0435 125.5754)" class="st0 st1 st2">5</text>
<text transform="matrix(0.9902 -0.1397 0.1397 0.9902 65.5435 149.5754)" class="st0 st1 st2">5</text>
<text transform="matrix(0.9902 -0.1397 0.1397 0.9902 135.8648 36.5754)" class="st0 st1 st2">5</text>
<text transform="matrix(0.9902 -0.1397 0.1397 0.9902 180.0005 99.1214)" class="st0 st1 st2">5</text>
<text transform="matrix(0.9902 -0.1397 0.1397 0.9902 117.6673 336.9615)" class="st0 st1 st2">5</text>
<text transform="matrix(0.8658 0.5005 -0.5005 0.8658 114.9381 226.5118)" class="st0 st1 st2">5</text>
<text transform="matrix(0.8658 0.5005 -0.5005 0.8658 187.8859 134.5118)" class="st0 st1 st2">5</text>
<text transform="matrix(0.8658 0.5005 -0.5005 0.8658 253.4381 129.0118)" class="st0 st1 st2">5</text>
<text transform="matrix(0.8658 0.5005 -0.5005 0.8658 76.3244 79.482)" class="st0 st1 st2">5</text>
<text transform="matrix(0.8658 0.5005 -0.5005 0.8658 49.8244 48.982)" class="st0 st1 st2">5</text>
<text transform="matrix(0.9389 -0.3441 0.3441 0.9389 98.3643 185.3223)" class="st0 st1 st2">5</text>
<text transform="matrix(0.9389 -0.3441 0.3441 0.9389 135.8643 85.8223)" class="st0 st1 st2">5</text>
<text transform="matrix(0.9389 -0.3441 0.3441 0.9389 30.0445 189.8223)" class="st0 st1 st2">5</text>
<text transform="matrix(0.9389 -0.3441 0.3441 0.9389 314.2058 162.5501)" class="st0 st1 st2">5</text>
<text transform="matrix(0.9389 -0.3441 0.3441 0.9389 233.2058 93.5501)" class="st0 st1 st2">5</text>
<text transform="matrix(0.7883 0.6153 -0.6153 0.7883 103.6091 125.7044)" class="st0 st1 st2">5</text>
<text transform="matrix(0.9902 -0.1397 0.1397 0.9902 240.4395 334.4863)" class="st0 st1 st2">5</text>
<text transform="matrix(0.9902 -0.1397 0.1397 0.9902 287.4395 300.4863)" class="st0 st1 st2">5</text>
<text transform="matrix(0.9902 -0.1397 0.1397 0.9902 215.4395 288.6526)" class="st0 st1 st2">5</text>
<text transform="matrix(0.9902 -0.1397 0.1397 0.9902 70.1425 308.2486)" class="st0 st1 st2">5</text>
<text transform="matrix(0.9902 -0.1397 0.1397 0.9902 70.1429 231.2486)" class="st0 st1 st2">5</text>
<text transform="matrix(0.9902 -0.1397 0.1397 0.9902 187.8851 199.9889)" class="st0 st1 st2">5</text>
<text transform="matrix(0.9902 -0.1397 0.1397 0.9902 249.8851 189.8222)" class="st0 st1 st2">5</text>
<text transform="matrix(0.9356 0.3531 -0.3531 0.9356 194.0079 41.8522)" class="st0 st1 st2">5</text>
<text transform="matrix(0.9356 0.3531 -0.3531 0.9356 166.0079 316.8521)" class="st0 st1 st2">5</text>
<text transform="matrix(0.9356 0.3531 -0.3531 0.9356 129.0079 277.3521)" class="st0 st1 st2">5</text>
<text transform="matrix(0.9441 0.3297 -0.3297 0.9441 310.1627 225.6464)" class="st0 st1 st2">5</text>
<text transform="matrix(0.9441 0.3297 -0.3297 0.9441 266.6627 240.2238)" class="st0 st1 st2">5</text>
<text transform="matrix(0.9441 0.3297 -0.3297 0.9441 162.6627 246.9797)" class="st0 st1 st2">5</text>
</svg>
