<?xml version="1.0" encoding="utf-8"?>
<!-- Generator: Adobe Illustrator 19.1.0, SVG Export Plug-In . SVG Version: 6.00 Build 0)  -->
<svg version="1.1" id="Layer_1" xmlns="http://www.w3.org/2000/svg" xmlns:xlink="http://www.w3.org/1999/xlink" x="0px" y="0px"
	 viewBox="0 0 65.9 67.5" style="enable-background:new 0 0 65.9 67.5;" xml:space="preserve">
<style type="text/css">
	.st0{fill:#010101;}
</style>
<path class="st0" d="M48.1,57.8c-2.1,0.5-4.3,0.7-6.5,0.7c-17,0-30.8-13.8-30.8-30.8c0-7.5,2.7-14.4,7.2-19.7
	c4.4-2.6,9.5-4.2,15-4.2c16,0,29.1,13.1,29.1,29.1C62.1,43.5,56.5,52.7,48.1,57.8z M33,0c-1.9,0-3.8,0.2-5.6,0.5
	C11.9,3.1,0,16.7,0,33c0,10.6,5,20,12.8,26.1c-7.4,0.7-12.4,2.2-12.4,4c0,2.5,10.2,4.5,22.7,4.5c12,0,23-2.2,22.8-4.2
	c5.3-2.2,9.8-5.8,13.3-10.3c4.3-5.6,6.8-12.5,6.8-20C65.9,14.8,51.1,0,33,0z"/>
</svg>
