<?xml version="1.0" encoding="utf-8"?>
<!-- Generator: Adobe Illustrator 19.1.0, SVG Export Plug-In . SVG Version: 6.00 Build 0)  -->
<svg version="1.1" id="Layer_1" xmlns="http://www.w3.org/2000/svg" xmlns:xlink="http://www.w3.org/1999/xlink" x="0px" y="0px"
	 viewBox="0 0 104.2 104.2" style="enable-background:new 0 0 104.2 104.2;" xml:space="preserve">
<style type="text/css">
	.st0{fill:#FFFFFF;}
	.st1{fill-rule:evenodd;clip-rule:evenodd;fill:#FFFFFF;}
</style>
<g>
	<path class="st0" d="M31.6,4.5c0.5,0,1.1,0.1,1.6,0.3C33.6,5,34,5.2,34.4,5.5c0.3,0.3,0.6,0.7,0.9,1.2c0.3,0.6,0.4,1.2,0.4,1.9
		c0,0.7-0.3,1.4-0.8,1.9c0.7-0.1,1.2,0.1,1.7,0.4c0.4,0.3,0.9,0.9,1.3,1.7l0.4,0.8c0.3,0.6,0.5,0.9,0.6,1.1c0.2,0.3,0.5,0.4,0.8,0.5
		l0.2,0.3l-2.8,1.4c-0.2-0.2-0.4-0.4-0.5-0.6c-0.2-0.3-0.5-0.6-0.6-1l-0.6-1.1c-0.4-0.8-0.8-1.2-1.2-1.4c-0.4-0.1-0.9,0-1.7,0.4
		L30,14.3l2.4,4.8l-2.5,1.3L23.7,8.2l5.9-3C30.4,4.8,31.1,4.6,31.6,4.5z M27.3,9l1.7,3.3l2.8-1.4c0.5-0.3,0.9-0.6,1.1-0.8
		c0.4-0.5,0.4-1.1,0-1.7c-0.4-0.7-0.9-1.1-1.5-1.1c-0.3,0-0.8,0.1-1.3,0.4L27.3,9z"/>
	<path class="st0" d="M58.5,2.7l-7.3-0.2l-0.1,2.9l6.7,0.2L57.7,8l-6.7-0.2L51,11.3l7.6,0.2L58.5,14l-10.4-0.2L48.5,0l10.1,0.2
		L58.5,2.7z"/>
	<path class="st0" d="M73.5,6.1c1.5-0.4,3-0.2,4.5,0.6c2,1.1,3.1,2.6,3.2,4.5c0.1,1-0.1,1.9-0.5,2.7l-2.5-1.4
		c0.2-0.7,0.2-1.2,0.1-1.6c-0.1-0.8-0.7-1.4-1.5-1.9c-0.9-0.5-1.8-0.5-2.7-0.1c-0.9,0.4-1.8,1.3-2.5,2.7c-0.8,1.3-1.1,2.5-0.9,3.5
		c0.2,1,0.7,1.7,1.5,2.2c0.9,0.5,1.7,0.6,2.4,0.3c0.4-0.2,0.9-0.5,1.4-1l2.5,1.4c-1,1.2-2.1,1.9-3.5,2.2c-1.3,0.3-2.7,0.1-4.1-0.7
		c-1.7-1-2.7-2.3-3.1-3.9c-0.3-1.7,0-3.5,1.1-5.4C70.3,7.9,71.8,6.6,73.5,6.1z"/>
	<path class="st0" d="M96.8,30.3L93,24.1l-2.5,1.5l3.5,5.7l-2,1.3l-3.5-5.7l-3,1.9l4,6.5l-2.1,1.3l-5.5-8.8l11.7-7.3l5.3,8.5
		L96.8,30.3z"/>
	<path class="st0" d="M103.5,43.3l0.2,3l-9.2,6l9.6-0.6l0.2,2.7l-13.7,0.8l-0.2-2.9l9.4-6.2L90,46.8l-0.2-2.7L103.5,43.3z"/>
	<path class="st0" d="M97.2,78.3l-2.2-1l1.7-3.8l-10.3-4.6l1.2-2.6l10.3,4.6l1.7-3.8l2.2,1L97.2,78.3z"/>
	<path class="st0" d="M68,86.7l2.5-1.3l6.2,12.3L74.2,99L68,86.7z"/>
	<path class="st0" d="M58.1,94.1c-0.1-0.6-0.3-1.1-0.6-1.4c-0.5-0.5-1.4-0.7-2.5-0.7c-0.7,0.1-1.2,0.2-1.7,0.3
		c-0.8,0.3-1.2,0.9-1.1,1.7c0,0.5,0.3,0.8,0.7,1c0.4,0.2,1.1,0.4,2,0.5l1.5,0.2c1.5,0.2,2.5,0.5,3.1,0.8c1,0.6,1.5,1.5,1.6,2.9
		c0.1,1.2-0.3,2.3-1.1,3.2c-0.8,0.9-2.1,1.4-3.9,1.5c-1.5,0.1-2.7-0.2-3.8-0.9c-1.1-0.7-1.7-1.8-1.9-3.2l2.8-0.2
		c0.1,0.8,0.5,1.4,1.2,1.7c0.5,0.2,1.1,0.3,1.7,0.2c0.8-0.1,1.3-0.3,1.8-0.6c0.4-0.3,0.6-0.8,0.6-1.3c0-0.5-0.3-0.8-0.7-1
		c-0.3-0.1-0.9-0.3-1.9-0.4L53.3,98c-1.1-0.2-1.9-0.4-2.4-0.8c-0.9-0.6-1.3-1.5-1.4-2.7c-0.1-1.3,0.3-2.3,1.2-3.2
		c0.9-0.9,2.2-1.4,4-1.5c1.8-0.1,3.3,0.2,4.3,0.9c1.1,0.7,1.7,1.8,1.8,3.2L58.1,94.1z"/>
	<path class="st0" d="M37.9,92.1c0.2-0.6,0.2-1.1,0.1-1.5c-0.2-0.7-0.9-1.3-1.9-1.7c-0.6-0.3-1.2-0.4-1.6-0.5
		c-0.9-0.1-1.5,0.3-1.8,1c-0.2,0.4-0.1,0.8,0.1,1.2c0.3,0.4,0.8,0.8,1.5,1.3l1.2,0.9c1.2,0.9,2,1.6,2.4,2.2c0.6,0.9,0.6,2,0.1,3.3
		c-0.5,1.1-1.3,1.9-2.5,2.3c-1.2,0.4-2.5,0.2-4.1-0.5c-1.3-0.6-2.3-1.4-3-2.5c-0.6-1.1-0.7-2.4-0.2-3.7l2.5,1.1
		c-0.3,0.8-0.2,1.5,0.3,2.1c0.3,0.4,0.8,0.7,1.4,1c0.7,0.3,1.3,0.4,1.8,0.3c0.5-0.1,0.9-0.4,1.1-0.9c0.2-0.5,0.1-0.9-0.2-1.3
		c-0.2-0.3-0.7-0.7-1.5-1.2l-2-1.5c-0.9-0.6-1.5-1.3-1.8-1.9c-0.5-0.9-0.5-1.9,0-3.1c0.5-1.2,1.4-1.9,2.6-2.3
		c1.2-0.4,2.6-0.2,4.3,0.5c1.7,0.7,2.8,1.7,3.4,2.8c0.6,1.2,0.7,2.4,0.1,3.7L37.9,92.1z"/>
	<path class="st0" d="M14.7,88.5l-1.8-2.3l6.6-5.2c0.7-0.6,1.2-1.1,1.4-1.5c0.4-0.7,0.2-1.6-0.5-2.5c-0.7-0.9-1.5-1.3-2.3-1.1
		c-0.5,0.1-1.1,0.4-1.8,1l-6.6,5.2l-1.8-2.3l6.6-5.2c1.1-0.9,2.2-1.4,3.1-1.6c1.7-0.3,3.3,0.5,4.8,2.4c1.5,1.9,1.9,3.6,1.3,5.2
		c-0.4,0.9-1.1,1.7-2.3,2.7L14.7,88.5z"/>
	<path class="st0" d="M2.4,55.5l1.3,7.2l2.9-0.5l-1.2-6.6l2.3-0.4l1.2,6.6l3.5-0.6L11,53.6l2.4-0.4l1.8,10.3L1.7,65.8L0,55.9
		L2.4,55.5z"/>
	<path class="st0" d="M10.7,41.9c0.6,0.1,1.1,0.1,1.5-0.1c0.7-0.3,1.2-1,1.5-2.1c0.2-0.7,0.3-1.2,0.3-1.7c0-0.9-0.4-1.4-1.1-1.7
		c-0.4-0.1-0.8-0.1-1.2,0.3c-0.4,0.3-0.7,0.9-1.2,1.6l-0.8,1.3c-0.7,1.3-1.4,2.1-1.9,2.6c-0.9,0.7-2,0.8-3.3,0.4
		c-1.2-0.4-2-1.1-2.5-2.2c-0.5-1.1-0.5-2.5,0-4.2c0.4-1.4,1.2-2.5,2.2-3.2c1-0.8,2.3-0.9,3.7-0.5l-0.8,2.6c-0.8-0.2-1.5,0-2,0.5
		c-0.4,0.4-0.6,0.9-0.8,1.5c-0.2,0.7-0.3,1.3-0.1,1.9c0.1,0.5,0.5,0.9,1,1c0.5,0.1,0.9,0,1.3-0.3c0.2-0.2,0.6-0.7,1.1-1.6L8.8,36
		c0.6-0.9,1.1-1.6,1.7-2c0.9-0.6,1.9-0.7,3-0.3c1.2,0.4,2,1.2,2.5,2.3c0.5,1.2,0.5,2.6-0.1,4.3c-0.5,1.7-1.4,3-2.5,3.7
		c-1.1,0.7-2.3,0.9-3.7,0.5L10.7,41.9z"/>
</g>
<path class="st1" d="M53.2,65.7v-2.3c0-1.1,0.9-1.9,1.9-1.9c1.1,0,1.9,0.9,1.9,1.9v1.4C55.9,65.2,54.6,65.5,53.2,65.7z M47.6,64.9
	v-1.6c0-1.1,0.9-1.9,1.9-1.9c1.1,0,1.9,0.9,1.9,1.9v2.4C50.1,65.6,48.8,65.4,47.6,64.9z M67.6,54.4C67.6,54.4,67.6,54.4,67.6,54.4
	c-0.1-1-0.9-1.7-1.8-1.6c-0.1,0-0.1,0-0.2,0c-0.6,0.1-1.1,0.3-1.7,0.4c-3.9,0.9-7.9,1.3-11.8,1.3c-4.5,0-9-0.6-13.5-1.7
	c-1-0.3-2.1,0.6-2.1,1.6c0,0.1,0,0.1,0,0.2c0.9,6,5.3,10.9,11,12.6c5.9,1.8,12.6-0.2,16.5-4.9C65.7,60.5,67.8,57.1,67.6,54.4z
	 M60.6,36.2c-2.7,0-4.9,2.2-4.9,4.9c0,2.7,2.2,4.9,4.9,4.9c2.7,0,4.9-2.2,4.9-4.9C65.4,38.4,63.3,36.2,60.6,36.2z M47.5,41.1
	c0-2.7-2.2-4.9-4.9-4.9c-2.7,0-4.9,2.2-4.9,4.9c0,2.7,2.2,4.9,4.9,4.9C45.3,45.9,47.5,43.8,47.5,41.1z"/>
</svg>
