<?xml version="1.0" encoding="utf-8"?>
<!-- Generator: Adobe Illustrator 19.1.0, SVG Export Plug-In . SVG Version: 6.00 Build 0)  -->
<svg version="1.1" id="Layer_1" xmlns="http://www.w3.org/2000/svg" xmlns:xlink="http://www.w3.org/1999/xlink" x="0px" y="0px"
	 viewBox="-256 185.7 278.3 278.3" style="enable-background:new -256 185.7 278.3 278.3;" xml:space="preserve">
<style type="text/css">
	.st0{fill:#DE3333;}
</style>
<rect x="-184.3" y="212.2" transform="matrix(0.797 -0.604 0.604 0.797 -168.4846 -62.326)" class="st0" width="14.6" height="14.6"/>
<rect x="-95.6" y="282.9" transform="matrix(0.797 -0.604 0.604 0.797 -193.2263 5.5995)" class="st0" width="14.6" height="14.6"/>
<rect x="-210.9" y="412.7" transform="matrix(0.797 -0.604 0.604 0.797 -295.0056 -37.6918)" class="st0" width="14.6" height="14.6"/>
<rect x="-21.8" y="402.5" transform="matrix(0.797 -0.604 0.604 0.797 -250.4346 74.46)" class="st0" width="14.6" height="14.6"/>
<rect x="-226.7" y="254.8" transform="matrix(0.8308 0.5566 -0.5566 0.8308 109.8562 168.8744)" class="st0" width="7.7" height="20.6"/>
<rect x="-115.6" y="336" transform="matrix(0.8308 0.5566 -0.5566 0.8308 173.8303 120.8225)" class="st0" width="7.7" height="20.6"/>
<rect x="-80.2" y="417.5" transform="matrix(0.8308 0.5566 -0.5566 0.8308 225.1836 114.9039)" class="st0" width="7.7" height="20.6"/>
<rect x="-14.1" y="229.1" transform="matrix(0.8308 0.5566 -0.5566 0.8308 131.5404 46.243)" class="st0" width="7.7" height="20.6"/>
<polygon class="st0" points="-199,341.5 -203.8,336.7 -199,331.9 -203.8,327.1 -208.6,331.9 -213.3,327.1 -218.1,331.9 
	-213.3,336.7 -218.1,341.5 -213.3,346.3 -208.6,341.5 -203.8,346.3 "/>
<polygon class="st0" points="-126,253.8 -130.8,249 -126,244.2 -130.8,239.4 -135.6,244.2 -140.4,239.4 -145.2,244.2 -140.4,249 
	-145.2,253.8 -140.4,258.6 -135.6,253.8 -130.8,258.6 "/>
<polygon class="st0" points="-28,361.8 -32.8,357 -28,352.2 -32.8,347.4 -37.6,352.2 -42.3,347.4 -47.1,352.2 -42.3,357 
	-47.1,361.8 -42.3,366.5 -37.6,361.8 -32.8,366.5 "/>
<polygon class="st0" points="-53.9,247 -53.9,240.2 -47.1,240.2 -47.1,233.5 -53.9,233.5 -53.9,226.7 -60.7,226.7 -60.7,233.5 
	-67.4,233.5 -67.4,240.2 -60.7,240.2 -60.7,247 "/>
<polygon class="st0" points="-134.7,441.8 -134.7,435 -128,435 -128,428.2 -134.7,428.2 -134.7,421.5 -141.5,421.5 -141.5,428.2 
	-148.3,428.2 -148.3,435 -141.5,435 -141.5,441.8 "/>
<polygon class="st0" points="-160.4,396.5 -164,376.3 -144.7,383.3 "/>
<polygon class="st0" points="-101.9,221.2 -116.8,207.1 -97.2,201.2 "/>
<polygon class="st0" points="-170.1,304.2 -173.6,284 -154.3,291 "/>
<polygon class="st0" points="-24.9,298.4 -6.1,290.2 -8.5,310.6 "/>
</svg>
