<?xml version="1.0" encoding="utf-8"?>
<!-- Generator: Adobe Illustrator 19.1.0, SVG Export Plug-In . SVG Version: 6.00 Build 0)  -->
<svg version="1.1" id="Layer_1" xmlns="http://www.w3.org/2000/svg" xmlns:xlink="http://www.w3.org/1999/xlink" x="0px" y="0px"
	 viewBox="-140 156.6 54 50.6" style="enable-background:new -140 156.6 54 50.6;" xml:space="preserve">
<path d="M-90,170h-10v-9.4c0-2.2-1.8-4-4-4s-4,1.8-4,4v9.4h-10v-8.4c0-2.5-2-4.5-4.5-4.5s-4.5,2-4.5,4.5v8.4h-9c-2.2,0-4,1.8-4,4
	c0,2.2,1.8,4,4,4h9v9.6c0,2.5,2,4.5,4.5,4.5s4.5-2,4.5-4.5V178h9.8c-0.3,5-0.7,8.8-1.3,10.8c-0.9,2.1-2.6,4-5.2,5.8
	c-2.7,2-6.8,3.2-12,3.7l-0.1,0c-2.2,0.3-3.9,2.1-3.9,4.4c0,2.5,2,4.5,4.5,4.5c0.6,0,1.2-0.1,1.8-0.4l1-0.3c6.7-1.7,12.1-4.1,16-7.1
	c2.8-2.1,4.8-4.7,6-8c1-2.9,1.5-7.5,1.7-13.5h9.6c2.2,0,4-1.8,4-4C-86,171.8-87.8,170-90,170z"/>
</svg>
