<?xml version="1.0" encoding="utf-8"?>
<!-- Generator: Adobe Illustrator 19.1.0, SVG Export Plug-In . SVG Version: 6.00 Build 0)  -->
<svg version="1.1" id="Layer_1" xmlns="http://www.w3.org/2000/svg" xmlns:xlink="http://www.w3.org/1999/xlink" x="0px" y="0px"
	 viewBox="-186.6 189.1 66.7 47.4" style="enable-background:new -186.6 189.1 66.7 47.4;" xml:space="preserve">
<path d="M-120.3,228.1c-1.9-5.1-4.3-10-7.3-14.4c-1.2-1.8-2.9-2.8-4.7-2.5c-1.9,0.3-2.8,1.8-3.3,3.8c-0.8,3.4-1.6,6.8-2.3,10.2
	c-0.2,0.8-0.4,1.7-0.6,2.5c0-0.2,0.4-0.9,0.1-0.4c-0.1,0.2-0.3,0.5,0.1,0c0.3-0.5,1-1.1,1.5-1.3c1.1,0.3,2.3,0.6,3.4,0.9
	c0.5,0.7,0.7,0.9,0.5,0.6c-0.3-0.6-0.7-1.4-1-1.9c0.1,0.1,0.5,1.2,0.2,0.3c-0.1-0.2-0.1-0.3-0.2-0.5c-0.2-0.4-0.4-0.9-0.5-1.3
	c-0.6-1.6-1.1-3.2-1.6-4.8c-0.2-0.8-0.4-1.6-0.6-2.4c-0.1-0.4-0.3-1.7-0.1-0.2c-0.1-0.4-0.2-0.8-0.3-1.2c-0.7-3.4-1.3-6.8-1.9-10.2
	c-0.7-4.2-1.6-8.3-2.8-12.4c-0.7-2.2-2.8-4-4.7-3.9c-2,0.1-3.6,1.6-3.9,3.9c-0.1,0.9-0.2,1.9-0.4,2.8c-0.1,0.3-0.1,0.5-0.2,0.8
	c-0.1,0.7,0-0.1,0.1-0.3c-0.2,0.4-0.2,0.9-0.4,1.4c-0.3,0.9-0.6,1.7-0.9,2.5c-0.2,0.4-0.4,0.9-0.5,1.3c-0.1,0.2-0.2,0.4-0.3,0.6
	c-0.2,0.5,0.6-0.9,0-0.1c-0.1,0.1-0.3,0.3-0.4,0.5c0.1-0.4,0.7-0.6,1-0.7c0.2,0,0.4-0.1,0.6-0.1c0.8,0.2,1,0.2,0.6,0.1
	c-0.5-0.2,1,0.5,0.5,0.2c-0.3-0.2,0.6,0.7,0.4,0.3c0-0.1-0.5-0.5-0.4-0.5c0,0,0.8,1.1,0.3,0.4c-0.1-0.1-0.2-0.3-0.3-0.4
	c-1.2-1.8-2.4-3.7-3.6-5.5c-1.2-1.9-3.4-3.1-5.3-2.4c-1.8,0.7-2.9,2.7-2.7,5.1c0.1,1.5,0.2,2.9,0.2,4.4c0,0.7,0,1.5,0.1,2.2
	c0,0.4,0,0.7,0,1.1c0,0.3,0.1,1.5,0,0.1c0.1,2.9-0.1,5.9-0.4,8.7c0.9-1.2,1.8-2.5,2.7-3.7c0.4-0.2,0.9-0.2,1.4-0.1
	c0.5,0.1,0.6,0.1,0.4,0c0.2,0.1,1.7,0.7,1.7,1c0,0-0.3-0.3-0.3-0.3c-0.5-0.5,0.8,1.1,0.5,0.6c-0.6-0.9-1.2-1.7-1.8-2.5
	c-2.2-2.6-5.6-3.1-7.7-0.9c-0.6,0.6-1,1.3-1.4,2.2c-0.1,0.2-0.2,0.4-0.2,0.6c0.1-0.4,0.3-0.7,0.6-0.9c0.3-0.3,0.4-0.3,0.2-0.2
	c-0.4,0.3,1.1-0.4,0.4-0.2c-0.8,0.2,1.2-0.1,0.3-0.1c-0.7,0.1,0.9,0.2,0.4,0.1c-0.5-0.2-0.3-0.3,0.3,0.2c-0.1-0.1-0.4-0.2-0.5-0.3
	c-0.4-0.3,0.8,0.8,0.2,0.2c-0.1-0.1-0.7-0.9-0.2-0.2c0.5,0.7,0,0-0.1-0.2c-0.6-1-1.2-2-1.7-3.1c-0.8-1.6-2.7-2.6-4.1-2.6
	c-1.5,0-3.1,1-3.6,2.7c-0.8,3.2-1.6,6.5-2.6,9.7c-0.1,0.2-0.1,0.4-0.2,0.5c0.1-0.2,0.2-0.4,0.3-0.6c0.8-1,1.8-1.3,2.9-1.1
	c0.7,0.3,0.8,0.4,0.4,0.1c-0.7-0.5-1.4-0.9-2.2-1.3c-1.4-0.9-2.9-1.7-4.3-2.6c-2.2-1.3-5-0.6-5.8,2c-0.8,2.5,0.1,5.8,2.5,7.2
	c1.7,1,3.5,2.1,5.2,3.1c1,0.6,2.1,1.3,3.2,1.6c2,0.6,3.9-0.1,5.2-1.6c1.2-1.5,1.6-3.9,2.1-5.9c0.5-2,1.1-4.1,1.6-6.1
	c-2.6,0-5.1,0.1-7.7,0.1c1.4,2.8,3,5.5,5.5,7.1c3,2,7.1,1.8,9.1-1.1c0.4-0.6,0.8-1.3,1.1-2c0.2-0.3,0.1-0.3-0.1,0.1
	c-0.3,0.7-0.8,1.2-1.5,1.4c-0.9,0.3-1.9,0.1-2.7-0.4c0.6,0.3-1.1-1-0.6-0.5c0.3,0.3,0.6,0.9-0.4-0.6c0.2,0.3,0.4,0.5,0.6,0.8
	c0.6,0.9,1.2,1.7,1.9,2.4c1.6,1.5,3.5,2.1,5.3,1.5c1.4-0.4,2.6-2,2.7-3.7c0.5-6.3,0.5-12.8,0-19.2c-2.7,0.9-5.3,1.8-8,2.7
	c1.4,2.1,2.7,4.4,4.2,6.4c1.3,1.7,2.6,3,4.4,3.7c1.8,0.7,3.7,0.3,5.2-0.8c1.3-1,2.1-2.6,2.9-4.2c0.5-1,0.9-2.1,1.3-3.2
	c0.8-2.5,1.4-5.2,1.7-7.9c-2.9,0-5.7,0-8.6,0.1c0.3,0.9,0.5,1.9,0.8,2.8c0.1,0.5,0.2,0.9,0.3,1.4c0,0.2,0.1,0.4,0.1,0.5
	c0.2,0.7-0.2-1.2,0-0.2c0.4,1.9,0.8,3.8,1.1,5.7c0.7,4.2,1.5,8.5,2.4,12.7c0.9,3.9,2.1,7.7,3.8,11.4c1.2,2.6,2.6,5.3,5.3,6.2
	c3.3,1,5.6-1.5,6.4-4.8c1.1-4.6,2.1-9.1,3.2-13.7c-2.7,0.5-5.3,0.9-8,1.4c1.3,2,2.6,4,3.7,6.2c0.3,0.5,0.5,1,0.8,1.5
	c0.3,0.7-0.6-1.3-0.1-0.1c0.1,0.2,0.2,0.5,0.3,0.7c0.5,1.2,1,2.3,1.4,3.5c1,2.6,3.6,4.6,5.9,3.7C-120.5,233.8-119.3,231-120.3,228.1
	L-120.3,228.1z"/>
</svg>
