<?xml version="1.0" encoding="utf-8"?>
<!-- Generator: Adobe Illustrator 19.1.0, SVG Export Plug-In . SVG Version: 6.00 Build 0)  -->
<svg version="1.1" id="Layer_1" xmlns="http://www.w3.org/2000/svg" xmlns:xlink="http://www.w3.org/1999/xlink" x="0px" y="0px"
	 viewBox="-186.6 185.6 62.6 61.1" style="enable-background:new -186.6 185.6 62.6 61.1;" xml:space="preserve">
<path d="M-129.1,225.5c2.8-0.4,5.1-3.2,5.1-6.2c0-2.1-1-3.7-2.6-4.4c0,0,0.1,0,0.1,0c0.1,0,0.1,0.1,0.2,0.1l-11.7-6.4c0,0,0,0,0,0
	c0.2-0.6,0.3-1.2,0.3-1.9c0-0.1,0-0.2,0-0.4l6,3.3c0,0,0,0-0.1,0c0,0-0.1,0-0.1-0.1c0.6,0.4,1.4,0.6,2.2,0.6c0.2,0,0.4,0,0.7,0
	c2.8-0.4,5.1-3.2,5.1-6.2c0-2.1-1-3.7-2.6-4.4c0,0,0.1,0,0.1,0c0.1,0,0.1,0.1,0.2,0.1l-24.8-13.5c-0.1,0-0.1-0.1-0.2-0.1
	c-0.3-0.1-0.5-0.2-0.8-0.3c-0.5-0.1-1.1-0.2-1.8-0.1c-0.5,0.1-1,0.2-1.5,0.4c-0.3,0.1-0.6,0.3-0.8,0.5c-0.2,0.1-0.4,0.3-0.6,0.5
	c-0.2,0.2-0.4,0.3-0.5,0.5c-0.2,0.2-0.3,0.4-0.5,0.6c-0.2,0.2-0.3,0.4-0.4,0.7c-0.1,0.3-0.3,0.6-0.4,0.9c-0.3,0.7-0.4,1.4-0.4,2.2
	c0,0.1,0,0.3,0,0.4l-6-3.3c-0.1,0-0.1-0.1-0.2-0.1c-0.3-0.1-0.5-0.2-0.8-0.3c-0.5-0.1-1.1-0.2-1.8-0.1c-0.5,0.1-1,0.2-1.5,0.4
	c-0.3,0.1-0.6,0.3-0.8,0.5c-0.2,0.1-0.4,0.3-0.6,0.5c-0.2,0.2-0.4,0.3-0.5,0.5c-0.2,0.2-0.3,0.4-0.5,0.6c-0.2,0.2-0.3,0.4-0.4,0.7
	c-0.1,0.3-0.3,0.6-0.4,0.9c-0.3,0.7-0.4,1.4-0.4,2.2c0,0.1,0,0.3,0,0.4l-6-3.3c-0.1,0-0.1-0.1-0.2-0.1c-0.3-0.1-0.5-0.2-0.8-0.3
	c-0.5-0.1-1.1-0.2-1.8-0.1c-0.5,0.1-1,0.2-1.5,0.4c-0.3,0.1-0.6,0.3-0.8,0.5c-0.2,0.1-0.4,0.3-0.6,0.5c-0.2,0.2-0.4,0.3-0.5,0.5
	c-0.2,0.2-0.3,0.4-0.5,0.6c-0.2,0.2-0.3,0.4-0.4,0.7c-0.1,0.3-0.3,0.6-0.4,0.9c-0.3,0.7-0.4,1.4-0.4,2.2c0,2,0.9,3.5,2.4,4.3
	l11.7,6.4c-0.2,0.6-0.3,1.2-0.3,1.9c0,0.1,0,0.3,0,0.4l-6-3.3c-0.1,0-0.1-0.1-0.2-0.1c-0.3-0.1-0.5-0.2-0.8-0.3
	c-0.5-0.1-1.1-0.2-1.8-0.1c-0.5,0.1-1,0.2-1.5,0.4c-0.3,0.1-0.6,0.3-0.8,0.5c-0.2,0.1-0.4,0.3-0.6,0.5c-0.2,0.2-0.4,0.3-0.5,0.5
	c-0.2,0.2-0.3,0.4-0.5,0.6c-0.2,0.2-0.3,0.4-0.4,0.7c-0.1,0.3-0.3,0.6-0.4,0.9c-0.3,0.7-0.4,1.4-0.4,2.2c0,2,0.9,3.5,2.4,4.3
	l11.7,6.4c-0.2,0.6-0.3,1.2-0.3,1.9c0,0.1,0,0.3,0,0.4l-6-3.3c-0.1,0-0.1-0.1-0.2-0.1c-0.3-0.1-0.5-0.2-0.8-0.3
	c-0.5-0.1-1.1-0.2-1.8-0.1c-0.5,0.1-1,0.2-1.5,0.4c-0.3,0.1-0.6,0.3-0.8,0.5c-0.2,0.1-0.4,0.3-0.6,0.5c-0.2,0.2-0.4,0.3-0.5,0.5
	c-0.2,0.2-0.3,0.4-0.5,0.6c-0.2,0.2-0.3,0.4-0.4,0.7c-0.1,0.3-0.3,0.6-0.4,0.9c-0.3,0.7-0.4,1.4-0.4,2.2c0,1.9,0.9,3.5,2.4,4.3
	l24.8,13.5c0,0,0,0,0,0c0,0-0.1,0-0.1-0.1c0.6,0.4,1.4,0.6,2.2,0.6c0.2,0,0.4,0,0.7,0c2.8-0.4,5.1-3.2,5.1-6.2c0-0.1,0-0.3,0-0.4
	l6,3.3c0,0,0,0,0,0c0,0-0.1,0-0.1-0.1c0.6,0.4,1.4,0.6,2.2,0.6c0.2,0,0.4,0,0.7,0c2.8-0.4,5.1-3.2,5.1-6.2c0-0.1,0-0.3,0-0.4l6,3.3
	c0,0,0,0-0.1,0c0,0-0.1,0-0.1-0.1c0.6,0.4,1.4,0.6,2.2,0.6c0.2,0,0.4,0,0.7,0c2.8-0.4,5.1-3.2,5.1-6.2c0-2.1-1-3.7-2.6-4.4
	c0,0,0.1,0,0.1,0c0.1,0,0.1,0.1,0.2,0.1l-11.7-6.4c0.2-0.6,0.3-1.2,0.3-1.9c0-0.1,0-0.2,0-0.4l6,3.3c0,0,0,0-0.1,0
	c0,0-0.1,0-0.1-0.1c0.6,0.4,1.4,0.6,2.2,0.6C-129.6,225.6-129.4,225.6-129.1,225.5z M-155.4,220.3c-0.1,0-0.3,0-0.4,0
	C-155.7,220.2-155.5,220.3-155.4,220.3z M-157.9,215.8c0.1,0,0.3,0,0.4,0C-157.7,215.9-157.8,215.9-157.9,215.8z M-158.8,215.6
	c0.1,0,0.3,0.1,0.4,0.1C-158.6,215.7-158.7,215.7-158.8,215.6z M-157.8,220.6C-157.8,220.6-157.8,220.6-157.8,220.6
	C-157.8,220.6-157.8,220.6-157.8,220.6z M-158.8,221.1c-0.2,0.1-0.4,0.3-0.6,0.4c0,0,0,0,0,0c0.1-0.1,0.3-0.2,0.4-0.3
	C-158.9,221.1-158.9,221.1-158.8,221.1C-158.8,221.1-158.8,221.1-158.8,221.1z M-159.6,215.2c0.1,0.1,0.2,0.1,0.3,0.2
	C-159.4,215.3-159.5,215.3-159.6,215.2z M-160.3,214.6c0.1,0.1,0.2,0.2,0.3,0.3C-160.2,214.8-160.3,214.7-160.3,214.6z
	 M-160.2,222.3c0,0,0.1-0.1,0.1-0.1c0.2-0.2,0.3-0.4,0.5-0.5c0,0,0,0,0.1,0c0,0,0,0,0,0C-159.8,221.8-160,222.1-160.2,222.3
	C-160.2,222.3-160.2,222.3-160.2,222.3z M-156.5,221.3c0.2,0,0.3,0,0.5,0c0.9,0,1.7,0.3,2.3,0.9c0.7,0.7,1.1,1.7,1.1,2.8
	c0,2.5-1.9,4.8-4.2,5.1c-0.2,0-0.3,0-0.5,0c-0.9,0-1.7-0.3-2.3-0.9c-0.7-0.7-1.1-1.7-1.1-2.8C-160.7,224-158.8,221.7-156.5,221.3z
	 M-154.9,220.4c0.1,0,0.3,0.1,0.4,0.1C-154.6,220.5-154.8,220.4-154.9,220.4z M-154,220.7c0.1,0.1,0.2,0.1,0.3,0.2
	C-153.8,220.8-153.9,220.8-154,220.7z M-153.3,221.2c0.1,0.1,0.2,0.2,0.3,0.3C-153.1,221.4-153.2,221.3-153.3,221.2z M-158,231.2
	c0.1,0,0.3,0,0.4,0C-157.7,231.3-157.8,231.3-158,231.2z M-158.5,231.1c-0.1,0-0.3-0.1-0.4-0.1
	C-158.7,231.1-158.6,231.1-158.5,231.1z M-159.3,230.8c-0.1-0.1-0.2-0.1-0.3-0.2C-159.6,230.7-159.5,230.7-159.3,230.8z
	 M-160.1,230.3c-0.1-0.1-0.2-0.2-0.3-0.3C-160.3,230.1-160.2,230.2-160.1,230.3z M-161.4,239.6
	C-161.4,239.6-161.4,239.6-161.4,239.6c0.1-0.2,0.2-0.5,0.3-0.7c0,0,0-0.1,0.1-0.1C-161.1,239-161.3,239.3-161.4,239.6z
	 M-161.4,228.5c0,0.1,0.1,0.2,0.2,0.3C-161.3,228.7-161.4,228.6-161.4,228.5z M-161.4,239.7C-161.4,239.7-161.4,239.7-161.4,239.7
	c-0.1,0.2-0.1,0.5-0.2,0.7c0,0,0,0,0,0C-161.6,240.2-161.5,239.9-161.4,239.7z M-161.7,227.5c0,0.1,0.1,0.2,0.1,0.3
	C-161.6,227.7-161.7,227.6-161.7,227.5z M-160.9,238.5c0.1-0.1,0.1-0.2,0.2-0.4c0.1-0.1,0.1-0.2,0.2-0.3
	C-160.6,238.1-160.7,238.3-160.9,238.5C-160.9,238.5-160.9,238.5-160.9,238.5z M-161,229.3c0.1,0.1,0.2,0.2,0.2,0.3
	C-160.8,229.5-160.9,229.4-161,229.3z M-160.3,237.7c0,0,0.1-0.1,0.1-0.1c0.2-0.2,0.3-0.4,0.5-0.5c0,0,0,0,0.1,0
	C-159.8,237.2-160.1,237.5-160.3,237.7L-160.3,237.7z M-159,236.6c0.1,0,0.1-0.1,0.2-0.1c0,0,0,0,0,0c-0.2,0.1-0.4,0.3-0.6,0.4
	C-159.3,236.8-159.2,236.7-159,236.6z M-157.8,236C-157.8,236-157.9,236-157.8,236C-157.9,236-157.8,236-157.8,236z M-156.7,235.7
	C-156.7,235.7-156.7,235.7-156.7,235.7L-156.7,235.7C-156.7,235.7-156.7,235.7-156.7,235.7C-156.7,235.7-156.7,235.7-156.7,235.7z
	 M-155.5,235.7c-0.1,0-0.3,0-0.4,0C-155.7,235.6-155.6,235.7-155.5,235.7z M-153.2,236.7c0,0-0.1-0.1-0.1-0.1
	C-153.3,236.7-153.2,236.7-153.2,236.7z M-153.9,236.2c-0.1,0-0.2-0.1-0.2-0.1C-154,236.1-153.9,236.2-153.9,236.2z M-154.6,235.9
	c-0.1,0-0.2-0.1-0.3-0.1C-154.8,235.8-154.7,235.8-154.6,235.9z M-152.6,221.9c0.1,0.1,0.2,0.2,0.2,0.3
	C-152.5,222.1-152.6,222-152.6,221.9z M-152.1,222.7c0.1,0.1,0.1,0.2,0.2,0.3C-152,222.9-152.1,222.8-152.1,222.7z M-151.8,223.7
	c0,0.1,0.1,0.2,0.1,0.3C-151.7,223.9-151.8,223.8-151.8,223.7z M-156.8,214.8c-0.2,0-0.3,0-0.5,0c-0.9,0-1.7-0.3-2.3-0.9
	c-0.7-0.7-1.1-1.7-1.1-2.8c0-2.5,1.9-4.8,4.2-5.1c0.2,0,0.3,0,0.5,0c0.9,0,1.7,0.3,2.3,0.9c0.7,0.7,1.1,1.7,1.1,2.8
	C-152.6,212.1-154.5,214.5-156.8,214.8z M-151.9,207.6c0-0.1-0.1-0.2-0.2-0.3C-152,207.4-152,207.5-151.9,207.6z M-152.4,206.8
	c-0.1-0.1-0.2-0.2-0.2-0.3C-152.5,206.6-152.4,206.7-152.4,206.8z M-152.9,206.1c-0.1-0.1-0.2-0.2-0.3-0.3
	C-153.1,205.9-153,206-152.9,206.1z M-153.7,205.5c-0.1-0.1-0.2-0.1-0.3-0.2C-153.9,205.4-153.8,205.4-153.7,205.5z M-154.5,205.1
	c-0.1,0-0.3-0.1-0.4-0.1C-154.7,205-154.6,205.1-154.5,205.1z M-155.4,204.9c-0.1,0-0.3,0-0.4,0
	C-155.6,204.8-155.5,204.9-155.4,204.9z M-157.8,205.2C-157.8,205.2-157.8,205.2-157.8,205.2C-157.8,205.2-157.8,205.2-157.8,205.2z
	 M-158.8,205.7c-0.2,0.1-0.4,0.3-0.6,0.4c0.1-0.1,0.3-0.2,0.4-0.3C-158.9,205.7-158.8,205.7-158.8,205.7z M-160.1,206.8
	c0.2-0.2,0.3-0.4,0.5-0.5c0,0,0,0,0.1,0c-0.2,0.2-0.5,0.4-0.7,0.7l0,0C-160.2,206.9-160.1,206.8-160.1,206.8z M-161.7,211
	C-161.7,211-161.7,211.1-161.7,211C-161.7,211.1-161.7,211.1-161.7,211C-161.7,211.1-161.7,211.1-161.7,211
	C-161.7,211.1-161.7,211-161.7,211z M-161.3,208.8C-161.3,208.8-161.3,208.8-161.3,208.8C-161.3,208.8-161.3,208.8-161.3,208.8z
	 M-161.6,209.8c0,0.1,0,0.1,0,0.2C-161.6,209.9-161.6,209.8-161.6,209.8z M-160.7,214.2c-0.1-0.1-0.2-0.2-0.2-0.3
	C-160.9,214-160.8,214.1-160.7,214.2z M-161.2,213.4c-0.1-0.1-0.1-0.2-0.2-0.3C-161.3,213.2-161.3,213.3-161.2,213.4z M-161.6,212.5
	c0-0.1-0.1-0.2-0.1-0.3C-161.6,212.2-161.6,212.3-161.6,212.5z M-161.3,224.2C-161.3,224.2-161.4,224.2-161.3,224.2
	C-161.4,224.2-161.3,224.2-161.3,224.2z M-161.6,225.2c0,0.1,0,0.1,0,0.2C-161.7,225.3-161.6,225.2-161.6,225.2z M-161.7,240.8
	C-161.7,240.8-161.7,240.8-161.7,240.8c-0.1,0.4-0.1,0.7-0.1,1.1C-161.8,241.5-161.8,241.1-161.7,240.8z M-161.7,243.1
	c0,0,0,0.1,0,0.1C-161.6,243.2-161.7,243.2-161.7,243.1C-161.7,243.1-161.7,243.1-161.7,243.1z M-160.4,245.5
	C-160.4,245.5-160.4,245.5-160.4,245.5C-160.4,245.5-160.3,245.5-160.4,245.5C-160.3,245.5-160.4,245.5-160.4,245.5z M-156.9,245.6
	c-0.2,0-0.3,0-0.5,0c-0.9,0-1.7-0.3-2.3-0.9c-0.7-0.7-1.1-1.7-1.1-2.8c0-2.5,1.9-4.8,4.2-5.1c0.2,0,0.3,0,0.5,0
	c0.9,0,1.7,0.3,2.3,0.9c0.7,0.7,1.1,1.7,1.1,2.8C-152.7,243-154.6,245.3-156.9,245.6z M-152.2,238.1L-152.2,238.1L-152.2,238.1z
	 M-152.7,237.3C-152.7,237.3-152.6,237.3-152.7,237.3C-152.6,237.3-152.7,237.3-152.7,237.3z M-151.7,208.3c0,0.1,0.1,0.2,0.1,0.3
	C-151.7,208.5-151.7,208.4-151.7,208.3z M-125.1,219.3c0,2.5-1.9,4.8-4.2,5.1c-0.2,0-0.3,0-0.5,0c-0.9,0-1.7-0.3-2.3-0.9
	c-0.7-0.7-1.1-1.7-1.1-2.8c0-2.5,1.9-4.8,4.2-5.1c0.2,0,0.3,0,0.5,0c0.9,0,1.7,0.3,2.3,0.9C-125.5,217.2-125.1,218.2-125.1,219.3z
	 M-127.2,214.7c0.1,0,0.2,0.1,0.2,0.1c-0.1-0.1-0.3-0.1-0.4-0.1c0,0,0.1,0,0.1,0C-127.3,214.7-127.3,214.7-127.2,214.7z
	 M-127.8,214.6c-0.1,0-0.3,0-0.4,0c0,0,0.1,0,0.1,0C-128,214.5-127.9,214.6-127.8,214.6z M-130.4,215c-0.1,0.1-0.3,0.1-0.4,0.2
	c0.1-0.1,0.2-0.1,0.3-0.2C-130.5,215-130.5,215-130.4,215z M-131.4,215.5c0.1,0,0.1-0.1,0.2-0.1c-0.2,0.1-0.4,0.3-0.6,0.4
	c0,0,0,0,0,0C-131.7,215.7-131.6,215.6-131.4,215.5z M-132,216C-132,215.9-132,215.9-132,216c-0.2,0.2-0.4,0.4-0.6,0.6
	c0,0,0.1-0.1,0.1-0.1C-132.4,216.3-132.2,216.1-132,216z M-132.8,216.8c-0.2,0.2-0.3,0.4-0.4,0.6c0.1-0.1,0.1-0.2,0.2-0.4
	C-132.9,217-132.9,216.9-132.8,216.8z M-133.4,217.6c-0.1,0.3-0.3,0.5-0.4,0.8C-133.7,218.2-133.5,218-133.4,217.6
	C-133.4,217.7-133.4,217.7-133.4,217.6z M-133.8,218.6c-0.1,0.2-0.1,0.5-0.2,0.7C-133.9,219.1-133.9,218.8-133.8,218.6
	C-133.8,218.6-133.8,218.6-133.8,218.6z M-142.9,228.4C-142.9,228.4-142.9,228.4-142.9,228.4C-142.9,228.4-142.9,228.4-142.9,228.4
	C-142.9,228.4-142.9,228.4-142.9,228.4C-142.9,228.4-142.9,228.4-142.9,228.4z M-144.2,228.4c0.1,0,0.3,0,0.4,0
	C-143.9,228.4-144,228.4-144.2,228.4z M-147.6,236.7L-147.6,236.7c0.1-0.2,0.2-0.5,0.3-0.7c0,0,0-0.1,0.1-0.1
	C-147.3,236.2-147.5,236.4-147.6,236.7z M-147.6,225.6c0,0.1,0.1,0.2,0.2,0.3C-147.5,225.9-147.6,225.7-147.6,225.6z M-147.6,236.9
	C-147.6,236.9-147.6,236.9-147.6,236.9c-0.1,0.2-0.1,0.5-0.2,0.7c0,0,0,0,0,0C-147.8,237.3-147.7,237.1-147.6,236.9z M-147.9,224.7
	c0,0.1,0.1,0.2,0.1,0.3C-147.8,224.9-147.9,224.8-147.9,224.7z M-146.8,235.3c0.1-0.1,0.1-0.2,0.2-0.3c-0.2,0.2-0.3,0.4-0.4,0.6
	C-147,235.6-146.9,235.4-146.8,235.3z M-147.2,226.5c0.1,0.1,0.2,0.2,0.2,0.3C-147,226.7-147.1,226.6-147.2,226.5z M-146.6,227.2
	c0.1,0.1,0.2,0.2,0.3,0.3C-146.4,227.4-146.5,227.3-146.6,227.2z M-146.5,234.9c0,0,0.1-0.1,0.1-0.1c0.2-0.2,0.3-0.4,0.5-0.5
	c0,0,0,0,0.1,0C-146.1,234.4-146.3,234.6-146.5,234.9L-146.5,234.9z M-145.9,227.8c0.1,0.1,0.2,0.1,0.3,0.2
	C-145.7,227.9-145.8,227.8-145.9,227.8z M-145.2,233.7c0.1,0,0.1-0.1,0.2-0.1l0,0c-0.2,0.1-0.4,0.3-0.6,0.4
	C-145.5,234-145.4,233.8-145.2,233.7z M-145.1,228.2c0.1,0,0.3,0.1,0.4,0.1C-144.8,228.2-145,228.2-145.1,228.2z M-144,233.1
	C-144.1,233.1-144.1,233.1-144,233.1C-144.1,233.1-144.1,233.1-144,233.1z M-142.9,232.8C-142.9,232.8-142.9,232.8-142.9,232.8
	L-142.9,232.8C-142.9,232.8-142.9,232.8-142.9,232.8C-142.9,232.8-142.9,232.8-142.9,232.8z M-141.7,232.8c-0.1,0-0.3,0-0.4,0
	C-142,232.8-141.8,232.8-141.7,232.8z M-140.1,233.4c-0.1,0-0.2-0.1-0.2-0.1C-140.2,233.3-140.2,233.3-140.1,233.4z M-140.8,233
	c-0.1,0-0.2-0.1-0.3-0.1C-141.1,232.9-140.9,233-140.8,233z M-141.5,227.9c0.1,0,0.2-0.1,0.3-0.1
	C-141.3,227.9-141.4,227.9-141.5,227.9z M-139.4,233.9c0,0-0.1-0.1-0.1-0.1C-139.5,233.8-139.5,233.8-139.4,233.9z M-140,227
	C-140,226.9-139.9,226.9-140,227C-139.9,226.9-140,226.9-140,227z M-143.1,227.3c-0.2,0-0.3,0-0.5,0c-0.9,0-1.7-0.3-2.3-0.9
	c-0.7-0.7-1.1-1.7-1.1-2.8c0-2.5,1.9-4.8,4.2-5.1c0.2,0,0.3,0,0.5,0c0.9,0,1.7,0.3,2.3,0.9c0.7,0.7,1.1,1.7,1.1,2.8
	C-138.9,224.7-140.8,227-143.1,227.3z M-142.7,203.1c0.2,0,0.3,0,0.5,0c0.9,0,1.7,0.3,2.3,0.9c0.7,0.7,1.1,1.7,1.1,2.8
	c0,2.5-1.9,4.8-4.2,5.1c-0.2,0-0.3,0-0.5,0c-0.9,0-1.7-0.3-2.3-0.9c-0.7-0.7-1.1-1.7-1.1-2.8C-146.9,205.7-145,203.4-142.7,203.1z
	 M-144,202.3C-144,202.3-144,202.3-144,202.3C-144,202.3-144,202.3-144,202.3z M-144.1,213c0.1,0,0.3,0,0.4,0
	C-143.9,213-144,213-144.1,213z M-145.2,218.3c0.1,0,0.1-0.1,0.2-0.1l0,0c-0.2,0.1-0.4,0.3-0.6,0.4
	C-145.5,218.5-145.4,218.4-145.2,218.3z M-145.9,212.4c0.1,0.1,0.2,0.1,0.3,0.2C-145.6,212.5-145.7,212.4-145.9,212.4z M-145,212.8
	c0.1,0,0.3,0.1,0.4,0.1C-144.8,212.8-144.9,212.8-145,212.8z M-144,217.7C-144,217.7-144,217.7-144,217.7
	C-144,217.7-144,217.7-144,217.7z M-141.6,217.4c-0.1,0-0.3,0-0.4,0C-141.9,217.4-141.8,217.4-141.6,217.4z M-141.4,212.6
	c0.1,0,0.2-0.1,0.3-0.1C-141.3,212.5-141.4,212.5-141.4,212.6z M-140,218c-0.1,0-0.2-0.1-0.2-0.1C-140.2,217.9-140.1,217.9-140,218z
	 M-140.8,217.6c-0.1,0-0.2-0.1-0.3-0.1C-141,217.5-140.9,217.6-140.8,217.6z M-146.3,212c-0.1-0.1-0.2-0.2-0.3-0.3
	C-146.5,211.9-146.4,212-146.3,212z M-146.4,219.5c0,0,0.1-0.1,0.1-0.1c0.2-0.2,0.3-0.4,0.5-0.5c0,0,0,0,0.1,0
	C-146,219-146.2,219.2-146.4,219.5L-146.4,219.5z M-139.5,218.4c0,0,0.1,0.1,0.1,0.1C-139.4,218.4-139.5,218.4-139.5,218.4z
	 M-139.9,211.6C-139.9,211.5-139.9,211.5-139.9,211.6C-139.9,211.5-139.9,211.5-139.9,211.6z M-138.3,204.5
	C-138.3,204.5-138.3,204.5-138.3,204.5C-138.3,204.5-138.3,204.5-138.3,204.5z M-138.8,210.2C-138.8,210.2-138.8,210.2-138.8,210.2
	C-138.8,210.2-138.8,210.2-138.8,210.2z M-138.8,203.6C-138.8,203.7-138.8,203.7-138.8,203.6C-138.8,203.7-138.8,203.7-138.8,203.6z
	 M-134,206.6C-134,206.6-134,206.6-134,206.6c0,0,0,0.1,0,0.1C-134,206.7-134,206.7-134,206.6z M-132.7,209
	C-132.7,209-132.8,208.9-132.7,209C-132.7,209-132.7,209-132.7,209C-132.7,209-132.7,209-132.7,209z M-125.1,203.9
	c0,2.5-1.9,4.8-4.2,5.1c-0.2,0-0.3,0-0.5,0c-0.9,0-1.7-0.3-2.3-0.9c-0.7-0.7-1.1-1.7-1.1-2.8c0-2.5,1.9-4.8,4.2-5.1
	c0.2,0,0.3,0,0.5,0c0.9,0,1.7,0.3,2.3,0.9C-125.4,201.8-125.1,202.8-125.1,203.9z M-127.2,199.3c0.1,0,0.1,0.1,0.2,0.1
	c-0.1-0.1-0.3-0.1-0.4-0.1c0,0,0.1,0,0.1,0C-127.3,199.3-127.2,199.3-127.2,199.3z M-127.8,199.2c-0.1,0-0.3,0-0.4,0
	c0,0,0.1,0,0.1,0C-128,199.1-127.9,199.2-127.8,199.2z M-130.5,199.6c0.1,0,0.1,0,0.2,0c-0.1,0.1-0.3,0.1-0.4,0.2c0,0,0,0,0,0
	C-130.7,199.7-130.6,199.6-130.5,199.6z M-131.2,200C-131.2,200-131.2,200-131.2,200c-0.2,0.1-0.4,0.3-0.6,0.4
	c0.1-0.1,0.3-0.2,0.4-0.3C-131.3,200-131.3,200-131.2,200z M-132,200.6C-132,200.5-132,200.5-132,200.6c-0.2,0.2-0.4,0.4-0.6,0.6
	c0,0,0.1-0.1,0.1-0.1C-132.3,200.9-132.2,200.7-132,200.6z M-132.7,201.4C-132.7,201.4-132.7,201.4-132.7,201.4
	c-0.2,0.2-0.3,0.4-0.4,0.6c0.1-0.1,0.1-0.2,0.2-0.4C-132.9,201.6-132.8,201.5-132.7,201.4z M-133.3,202.2c-0.1,0.3-0.3,0.5-0.4,0.8
	C-133.6,202.8-133.5,202.6-133.3,202.2C-133.4,202.3-133.3,202.3-133.3,202.2z M-133.8,203.2C-133.8,203.2-133.8,203.2-133.8,203.2
	c-0.1,0.2-0.1,0.5-0.2,0.7c0,0,0,0,0,0C-133.9,203.6-133.8,203.4-133.8,203.2z M-134.2,205.4C-134.2,205.4-134.2,205.4-134.2,205.4
	C-134.2,205.4-134.2,205.4-134.2,205.4L-134.2,205.4z M-139.3,203.1c0,0-0.1-0.1-0.1-0.1C-139.4,203-139.4,203-139.3,203.1z
	 M-141.6,202c-0.1,0-0.3,0-0.4,0C-141.9,202-141.7,202-141.6,202z M-140,202.6c-0.1,0-0.2-0.1-0.2-0.1
	C-140.2,202.5-140.1,202.5-140,202.6z M-140.8,202.2c-0.1,0-0.2-0.1-0.3-0.1C-141,202.1-140.9,202.2-140.8,202.2z M-145,202.8
	c-0.2,0.1-0.4,0.3-0.6,0.4c0.1-0.1,0.3-0.2,0.4-0.3C-145.1,202.9-145,202.9-145,202.8z M-146.3,203.9c0.2-0.2,0.3-0.4,0.5-0.5
	c0,0,0,0,0.1,0c-0.2,0.2-0.5,0.4-0.7,0.7v0C-146.4,204-146.3,204-146.3,203.9z M-147.9,208.2C-147.9,208.2-148,208.2-147.9,208.2
	C-148,208.2-148,208.2-147.9,208.2C-148,208.2-148,208.2-147.9,208.2C-148,208.2-147.9,208.2-147.9,208.2z M-147.5,205.9
	C-147.5,206-147.5,206-147.5,205.9C-147.5,206-147.5,206-147.5,205.9z M-147.8,206.9c0,0.1,0,0.1,0,0.2
	C-147.8,207-147.8,207-147.8,206.9z M-146.9,211.4c-0.1-0.1-0.2-0.2-0.2-0.3C-147.1,211.2-147,211.3-146.9,211.4z M-147.4,210.6
	c-0.1-0.1-0.1-0.2-0.2-0.3C-147.5,210.3-147.5,210.5-147.4,210.6z M-147.8,209.6c0-0.1-0.1-0.2-0.1-0.3
	C-147.8,209.4-147.8,209.5-147.8,209.6z M-147.5,221.3C-147.6,221.3-147.6,221.4-147.5,221.3C-147.6,221.4-147.6,221.3-147.5,221.3z
	 M-147.8,222.3c0,0.1,0,0.1,0,0.2C-147.9,222.4-147.9,222.4-147.8,222.3z M-147.9,237.9C-147.9,237.9-147.9,237.9-147.9,237.9
	c-0.1,0.4-0.1,0.7-0.1,1.1C-148,238.6-148,238.3-147.9,237.9z M-147.9,240.3c0,0,0,0.1,0,0.1C-147.9,240.4-147.9,240.3-147.9,240.3
	C-147.9,240.3-147.9,240.3-147.9,240.3z M-146.6,242.6C-146.6,242.6-146.6,242.6-146.6,242.6C-146.6,242.6-146.6,242.7-146.6,242.6
	C-146.5,242.7-146.6,242.7-146.6,242.6z M-143.1,242.7c-0.2,0-0.3,0-0.5,0c-0.9,0-1.7-0.3-2.3-0.9c-0.7-0.7-1.1-1.7-1.1-2.8
	c0-2.5,1.9-4.8,4.2-5.1c0.2,0,0.3,0,0.5,0c0.9,0,1.7,0.3,2.3,0.9c0.7,0.7,1.1,1.7,1.1,2.8C-138.9,240.1-140.8,242.4-143.1,242.7z
	 M-138.4,235.3C-138.4,235.3-138.4,235.3-138.4,235.3C-138.4,235.3-138.4,235.3-138.4,235.3z M-138.9,234.4
	C-138.9,234.5-138.9,234.5-138.9,234.4C-138.9,234.5-138.9,234.5-138.9,234.4z M-134.1,237.4C-134.1,237.4-134.1,237.4-134.1,237.4
	c0,0,0,0.1,0,0.1C-134.1,237.5-134.1,237.5-134.1,237.4z M-132.8,239.8C-132.8,239.8-132.8,239.7-132.8,239.8
	C-132.8,239.8-132.8,239.8-132.8,239.8C-132.7,239.8-132.8,239.8-132.8,239.8z M-125.2,234.7c0,2.5-1.9,4.8-4.2,5.1
	c-0.2,0-0.3,0-0.5,0c-0.9,0-1.7-0.3-2.3-0.9c-0.7-0.7-1.1-1.7-1.1-2.8c0-2.5,1.9-4.8,4.2-5.1c0.2,0,0.3,0,0.5,0
	c0.9,0,1.7,0.3,2.3,0.9C-125.5,232.6-125.1,233.6-125.2,234.7z M-127.3,230.1c0.1,0,0.1,0.1,0.2,0.1c-0.1-0.1-0.3-0.1-0.4-0.1
	c0,0,0.1,0,0.1,0C-127.3,230.1-127.3,230.1-127.3,230.1z M-127.9,230c-0.1,0-0.3,0-0.4,0c0,0,0.1,0,0.1,0
	C-128.1,229.9-128,230-127.9,230z M-129.1,230L-129.1,230C-129.1,230-129.1,230-129.1,230C-129.1,230-129.1,230-129.1,230
	C-129.1,230-129.1,230-129.1,230z M-130.6,230.4c0.1,0,0.1,0,0.2,0c0,0,0,0,0,0c-0.1,0.1-0.3,0.1-0.4,0.2c0,0,0,0,0,0
	C-130.8,230.5-130.7,230.5-130.6,230.4z M-131.5,230.9c0.1,0,0.1-0.1,0.2-0.1c0,0,0,0,0,0c-0.2,0.1-0.4,0.3-0.6,0.4c0,0,0,0,0,0
	C-131.7,231.1-131.6,231-131.5,230.9z M-132.1,231.4C-132.1,231.4-132,231.3-132.1,231.4C-132,231.3-132,231.3-132.1,231.4
	c-0.2,0.2-0.4,0.4-0.6,0.6c0,0,0.1-0.1,0.1-0.1C-132.4,231.7-132.3,231.5-132.1,231.4z M-133,232.5c0.1-0.1,0.1-0.2,0.2-0.3
	c0,0,0,0,0,0c-0.2,0.2-0.3,0.4-0.4,0.6c0,0,0,0,0,0C-133.2,232.7-133.1,232.6-133,232.5z M-133.5,233.1
	C-133.4,233.1-133.4,233.1-133.5,233.1c0.1-0.1,0.1-0.1,0.1-0.1c-0.1,0.3-0.3,0.5-0.4,0.8c0,0,0,0,0,0
	C-133.7,233.6-133.6,233.4-133.5,233.1z M-133.8,234C-133.8,234-133.8,234-133.8,234C-133.8,234-133.8,234-133.8,234
	c-0.1,0.2-0.1,0.5-0.2,0.7c0,0,0,0,0,0C-134,234.4-133.9,234.2-133.8,234z M-134.1,235.1C-134.1,235.1-134.1,235.1-134.1,235.1
	c-0.1,0.4-0.1,0.7-0.1,1.1C-134.2,235.8-134.2,235.4-134.1,235.1z M-138.9,225.6C-138.9,225.6-138.9,225.6-138.9,225.6
	C-138.9,225.6-138.9,225.6-138.9,225.6z M-138.3,219.9C-138.3,219.9-138.3,219.9-138.3,219.9C-138.3,219.9-138.3,219.9-138.3,219.9z
	 M-138.8,219C-138.8,219.1-138.8,219.1-138.8,219C-138.8,219.1-138.8,219.1-138.8,219z M-134.1,219.6
	C-134.1,219.6-134.1,219.6-134.1,219.6c-0.1,0.4-0.1,0.7-0.1,1.1c0,0,0,0,0,0c0,0,0,0,0,0C-134.2,220.4-134.2,220-134.1,219.6z
	 M-134,222c0,0,0,0.1,0,0.1C-134,222.1-134,222.1-134,222C-134,222-134,222-134,222z M-132.8,224.4
	C-132.8,224.4-132.8,224.3-132.8,224.4C-132.8,224.4-132.7,224.4-132.8,224.4C-132.7,224.4-132.7,224.4-132.8,224.4z"/>
</svg>
