<?xml version="1.0" encoding="utf-8"?>
<!-- Generator: Adobe Illustrator 19.1.0, SVG Export Plug-In . SVG Version: 6.00 Build 0)  -->
<svg version="1.1" id="Layer_1" xmlns="http://www.w3.org/2000/svg" xmlns:xlink="http://www.w3.org/1999/xlink" x="0px" y="0px"
	 viewBox="-256 185.7 278.3 278.3" style="enable-background:new -256 185.7 278.3 278.3;" xml:space="preserve">
<style type="text/css">
	.st0{fill:#FFFFFF;}
</style>
<path class="st0" d="M-102.9,296.6c-1.2,0-2.4-0.5-3.3-1.5c-1.6-1.8-1.5-4.6,0.3-6.2c6.2-5.6,14.2-8.6,22.5-8.6c2.4,0,4.4,2,4.4,4.4
	c0,2.4-2,4.4-4.4,4.4c-6.2,0-12.1,2.3-16.6,6.4C-100.8,296.2-101.8,296.6-102.9,296.6z"/>
<path class="st0" d="M-147,261.6c-1.2,0-2.4-0.5-3.3-1.5c-1.6-1.8-1.5-4.6,0.3-6.2c6.2-5.6,14.2-8.6,22.5-8.6c2.4,0,4.4,2,4.4,4.4
	c0,2.4-2,4.4-4.4,4.4c-6.2,0-12.1,2.3-16.6,6.4C-144.9,261.2-146,261.6-147,261.6z"/>
<path class="st0" d="M-17.6,317.2c-1.1,0-2.3-0.4-3.1-1.3c-1.7-1.7-1.7-4.5,0-6.2c4.4-4.4,6.9-10.1,7.3-16.3
	c0.1-2.4,2.2-4.3,4.6-4.2c2.4,0.1,4.3,2.2,4.2,4.6c-0.4,8.3-3.9,16.1-9.8,22C-15.3,316.8-16.4,317.2-17.6,317.2z"/>
<path class="st0" d="M-19.2,433.5c-1.1,0-2.3-0.4-3.1-1.3c-1.7-1.7-1.7-4.5,0-6.2c4.4-4.4,6.9-10.1,7.3-16.3
	c0.1-2.4,2.2-4.3,4.6-4.2c2.4,0.1,4.3,2.2,4.2,4.6c-0.4,8.3-3.9,16.1-9.8,22C-16.9,433-18,433.5-19.2,433.5z"/>
<path class="st0" d="M-213.3,359.2c-1.1,0-2.3-0.4-3.1-1.3c-1.7-1.7-1.7-4.5,0-6.2c4.4-4.4,6.9-10.1,7.3-16.3
	c0.1-2.4,2.2-4.3,4.6-4.2s4.3,2.2,4.2,4.6c-0.4,8.3-3.9,16.1-9.8,22C-211.1,358.8-212.2,359.2-213.3,359.2z"/>
<path class="st0" d="M-70,253.4c-1.1,0-2.3-0.4-3.1-1.3c-1.7-1.7-1.7-4.5,0-6.2c4.4-4.4,6.9-10.1,7.3-16.3c0.1-2.4,2.2-4.3,4.6-4.2
	c2.4,0.1,4.3,2.2,4.2,4.6c-0.4,8.3-3.9,16.1-9.8,22C-67.7,253-68.8,253.4-70,253.4z"/>
<path class="st0" d="M-126.7,215.8c-1.9,0-3.6-1.2-4.2-3.1c-0.7-2.3,0.6-4.8,2.9-5.5c5.9-1.8,10.9-5.6,14.1-10.9
	c1.3-2.1,4-2.7,6-1.5c2.1,1.3,2.7,4,1.5,6c-4.3,7.1-11.1,12.3-19.1,14.7C-125.9,215.7-126.3,215.8-126.7,215.8z"/>
<path class="st0" d="M-207.9,414.1c-1,0-2.1-0.4-2.9-1.1c-4.6-4-10.4-6.2-16.5-6.2c-2.4,0-4.4-2-4.4-4.4c0-2.4,2-4.4,4.4-4.4
	c8.2,0,16.1,3,22.3,8.4c1.8,1.6,2,4.4,0.4,6.2C-205.5,413.6-206.7,414.1-207.9,414.1z"/>
<path class="st0" d="M-96.6,357.3c-1,0-2.1-0.4-2.9-1.1c-4.6-4-10.4-6.2-16.5-6.2c-2.4,0-4.4-2-4.4-4.4c0-2.4,2-4.4,4.4-4.4
	c8.2,0,16.1,3,22.3,8.4c1.8,1.6,2,4.4,0.4,6.2C-94.2,356.8-95.4,357.3-96.6,357.3z"/>
<path class="st0" d="M-1,248.9c-1,0-2.1-0.4-2.9-1.1c-4.6-4-10.4-6.2-16.5-6.2c-2.4,0-4.4-2-4.4-4.4s2-4.4,4.4-4.4
	c8.2,0,16.1,3,22.3,8.4c1.8,1.6,2,4.4,0.4,6.2C1.5,248.3,0.3,248.9-1,248.9z"/>
<path class="st0" d="M-118.7,460.6c-1,0-2.1-0.4-2.9-1.1c-4.6-4-10.4-6.2-16.5-6.2c-2.4,0-4.4-2-4.4-4.4s2-4.4,4.4-4.4
	c8.2,0,16.1,3,22.3,8.4c1.8,1.6,2,4.4,0.4,6.2C-116.3,460.1-117.5,460.6-118.7,460.6z"/>
<path class="st0" d="M-174.7,302.2c-1.6,0-3.2-0.9-4-2.5c-1-2.2-0.1-4.8,2.1-5.9c7.4-3.5,15.8-4.3,23.7-2c2.3,0.7,3.7,3.1,3,5.4
	s-3.1,3.7-5.4,3c-5.8-1.7-12.1-1.1-17.5,1.5C-173.4,302-174.1,302.2-174.7,302.2z"/>
<path class="st0" d="M-147,400.9c-1.2,0-2.4-0.5-3.3-1.5c-1.6-1.8-1.5-4.6,0.3-6.2c6.2-5.6,14.2-8.6,22.5-8.6c2.4,0,4.4,2,4.4,4.4
	s-2,4.4-4.4,4.4c-6.2,0-12.1,2.3-16.6,6.4C-144.9,400.5-146,400.9-147,400.9z"/>
<path class="st0" d="M-68.4,441c-1.5,0-2.9-0.7-3.7-2.1c-3.3-5.2-8.3-9-14.3-10.7c-2.3-0.7-3.7-3.1-3-5.4c0.7-2.3,3.1-3.7,5.4-3
	c8,2.3,14.9,7.4,19.3,14.5c1.3,2.1,0.7,4.8-1.4,6.1C-66.8,440.8-67.6,441-68.4,441z"/>
<path class="st0" d="M-212.8,274.3c-0.6,0-1.1-0.1-1.7-0.3c-5.6-2.3-11.9-2.5-17.6-0.5c-2.3,0.8-4.8-0.4-5.6-2.7
	c-0.8-2.3,0.4-4.8,2.7-5.6c7.8-2.7,16.2-2.4,23.8,0.7c2.2,0.9,3.3,3.5,2.4,5.7C-209.5,273.3-211.1,274.3-212.8,274.3z"/>
<path class="st0" d="M-178.5,232.3c-0.6,0-1.1-0.1-1.7-0.3c-2.2-0.9-3.3-3.5-2.4-5.7c2.4-5.7,2.6-11.9,0.6-17.6
	c-0.8-2.3,0.4-4.8,2.7-5.6c2.3-0.8,4.8,0.4,5.6,2.7c2.7,7.8,2.4,16.2-0.7,23.8C-175.1,231.3-176.8,232.3-178.5,232.3z"/>
<path class="st0" d="M-37.8,384.5c-0.6,0-1.1-0.1-1.7-0.3c-2.2-0.9-3.3-3.5-2.4-5.7c2.3-5.6,2.5-11.9,0.5-17.6
	c-0.8-2.3,0.4-4.8,2.7-5.6c2.3-0.8,4.8,0.4,5.6,2.7c2.7,7.8,2.4,16.2-0.7,23.8C-34.4,383.5-36,384.5-37.8,384.5z"/>
</svg>
