<?xml version="1.0" encoding="utf-8"?>
<!-- Generator: Adobe Illustrator 19.1.0, SVG Export Plug-In . SVG Version: 6.00 Build 0)  -->
<svg version="1.1" id="Layer_1" xmlns="http://www.w3.org/2000/svg" xmlns:xlink="http://www.w3.org/1999/xlink" x="0px" y="0px"
	 viewBox="-256 185.7 278.3 278.3" style="enable-background:new -256 185.7 278.3 278.3;" xml:space="preserve">
<style type="text/css">
	.st0{opacity:0.46;fill:#FFFFFF;enable-background:new    ;}
</style>
<circle class="st0" cx="-172.2" cy="274.5" r="7.6"/>
<circle class="st0" cx="-228.8" cy="274.5" r="7.6"/>
<circle class="st0" cx="-65.4" cy="230.9" r="7.6"/>
<circle class="st0" cx="-108.4" cy="247.8" r="7.6"/>
<circle class="st0" cx="-65.4" cy="364.5" r="12.9"/>
<circle class="st0" cx="-20.9" cy="251.5" r="12.9"/>
<circle class="st0" cx="-188.9" cy="337.4" r="12.9"/>
<circle class="st0" cx="-156" cy="247.8" r="12.9"/>
<circle class="st0" cx="-116.8" cy="441.7" r="12.9"/>
<circle class="st0" cx="-14.9" cy="375.5" r="12.9"/>
<circle class="st0" cx="-197.8" cy="230.9" r="4"/>
<circle class="st0" cx="-139.6" cy="209.5" r="7.4"/>
<circle class="st0" cx="-236.2" cy="370" r="7.4"/>
<circle class="st0" cx="-115.8" cy="400.5" r="7.4"/>
<circle class="st0" cx="-156" cy="353.9" r="7.4"/>
<circle class="st0" cx="-197.8" cy="424.4" r="7.4"/>
<circle class="st0" cx="-164.5" cy="388.4" r="7.4"/>
<circle class="st0" cx="-90" cy="331.2" r="7.4"/>
<circle class="st0" cx="-114.7" cy="301.5" r="7.4"/>
<circle class="st0" cx="6" cy="350.4" r="7.4"/>
<circle class="st0" cx="-228.8" cy="316.3" r="7.4"/>
<circle class="st0" cx="-78.3" cy="407.9" r="7.4"/>
<circle class="st0" cx="-14.9" cy="323.8" r="7.4"/>
<circle class="st0" cx="-164.5" cy="428.8" r="4.4"/>
<circle class="st0" cx="-122.1" cy="358.3" r="4.4"/>
<circle class="st0" cx="-135.3" cy="313.3" r="4.4"/>
<circle class="st0" cx="-135.3" cy="419.7" r="4.4"/>
<circle class="st0" cx="-85.7" cy="450.9" r="4.4"/>
<circle class="st0" cx="-246.1" cy="340.8" r="4.4"/>
<circle class="st0" cx="-96.8" cy="216.9" r="4.4"/>
<circle class="st0" cx="-123.2" cy="198.2" r="4.4"/>
<circle class="st0" cx="-48.1" cy="255.4" r="4.4"/>
<circle class="st0" cx="6" cy="293.1" r="4.4"/>
<circle class="st0" cx="-37.5" cy="301.5" r="4.4"/>
<circle class="st0" cx="-73.9" cy="282.2" r="4.4"/>
<circle class="st0" cx="-37.5" cy="417" r="4.4"/>
</svg>
